<svg width="17" height="16" viewBox="0 0 17 16" fill="none" xmlns="http://www.w3.org/2000/svg">
<path fill-rule="evenodd" clip-rule="evenodd" d="M14.2143 2.28571H15.3571C15.9883 2.28571 16.5 2.79739 16.5 3.42857V5.71429H0.5V3.42857C0.5 2.79739 1.01167 2.28571 1.64286 2.28571H2.78571V0H5.07143V2.28571H11.9286V0H14.2143V2.28571ZM0.5 6.85708H16.5V14.8571C16.5 15.4883 15.9883 15.9999 15.3571 15.9999H1.64286C1.01167 15.9999 0.5 15.4883 0.5 14.8571V6.85708ZM2.78571 10.2857V12.5714H5.07143V10.2857H2.78571ZM7.35714 10.2857V12.5714H9.64286V10.2857H7.35714ZM11.9286 10.2857V12.5714H14.2143V10.2857H11.9286Z" fill="#545E6B"/>
</svg>
