<svg width="81" height="80" viewBox="0 0 81 80" fill="none" xmlns="http://www.w3.org/2000/svg">
<path d="M40.4998 6.66667C22.1198 6.66667 7.1665 21.62 7.1665 40C7.1665 58.38 22.1198 73.3333 40.4998 73.3333C58.8798 73.3333 73.8332 58.38 73.8332 40C73.8332 21.62 58.8798 6.66667 40.4998 6.66667ZM40.4998 66.6667C25.7965 66.6667 13.8332 54.7033 13.8332 40C13.8332 25.2967 25.7965 13.3333 40.4998 13.3333C55.2032 13.3333 67.1665 25.2967 67.1665 40C67.1665 54.7033 55.2032 66.6667 40.4998 66.6667Z" fill="#30A883"/>
<path d="M33.83 45.29L26.1666 37.64L21.46 42.36L33.8366 54.71L56.19 32.3567L51.4766 27.6433L33.83 45.29Z" fill="#30A883"/>
</svg>
