<svg width="20" height="16" viewBox="0 0 20 16" fill="none" xmlns="http://www.w3.org/2000/svg">
<path fill-rule="evenodd" clip-rule="evenodd" d="M3.28082 0.21967C2.98793 -0.0732233 2.51305 -0.0732233 2.22016 0.21967C1.92726 0.512563 1.92726 0.987437 2.22016 1.28033L16.7202 15.7803C17.0131 16.0732 17.4879 16.0732 17.7808 15.7803C18.0737 15.4874 18.0737 15.0126 17.7808 14.7197L16.0356 12.9745C17.5069 11.8594 18.66 10.3465 19.3348 8.59593C19.4819 8.21437 19.4821 7.79127 19.3352 7.40962C17.8925 3.66051 14.2565 1 9.99908 1C8.28256 1 6.66706 1.43249 5.25559 2.19444L3.28082 0.21967ZM7.75242 4.69128L8.84416 5.78301C9.19 5.60223 9.5834 5.5 10.0007 5.5C11.3814 5.5 12.5007 6.61929 12.5007 8C12.5007 8.41727 12.3984 8.81067 12.2177 9.15651L13.3096 10.2484C13.7459 9.60769 14.0009 8.83362 14.0009 8C14.0009 5.79086 12.21 4 10.0009 4C9.16724 4 8.39317 4.25501 7.75242 4.69128Z" fill="#5B5B5B"/>
<path d="M10.7489 11.9302L13.2716 14.4529C12.2467 14.8074 11.1463 15 10.0009 15C5.74346 15 2.10746 12.3395 0.664743 8.59038C0.51788 8.20873 0.518007 7.78563 0.665098 7.40408C1.15652 6.12932 1.90157 4.98057 2.8384 4.01969L6.07068 7.25198C6.02484 7.4943 6.00086 7.74435 6.00086 8C6.00086 10.2091 7.79172 12 10.0009 12C10.2565 12 10.5066 11.976 10.7489 11.9302Z" fill="#5B5B5B"/>
</svg>
