<svg width="20" height="21" viewBox="0 0 20 21" fill="none" xmlns="http://www.w3.org/2000/svg">
<path d="M10.0005 13C11.3812 13 12.5005 11.8807 12.5005 10.5C12.5005 9.11929 11.3812 8 10.0005 8C8.61978 8 7.50049 9.11929 7.50049 10.5C7.50049 11.8807 8.61978 13 10.0005 13Z" fill="#5B5B5B"/>
<path fill-rule="evenodd" clip-rule="evenodd" d="M0.664743 11.0904C0.51788 10.7087 0.518007 10.2856 0.665098 9.90408C2.10927 6.15788 5.74378 3.5 9.99908 3.5C14.2565 3.5 17.8925 6.16051 19.3352 9.90962C19.4821 10.2913 19.4819 10.7144 19.3348 11.0959C17.8907 14.8421 14.2562 17.5 10.0009 17.5C5.74346 17.5 2.10746 14.8395 0.664743 11.0904ZM14.0009 10.5C14.0009 12.7091 12.21 14.5 10.0009 14.5C7.79172 14.5 6.00086 12.7091 6.00086 10.5C6.00086 8.29086 7.79172 6.5 10.0009 6.5C12.21 6.5 14.0009 8.29086 14.0009 10.5Z" fill="#5B5B5B"/>
</svg>
