<svg width="20" height="20" viewBox="0 0 20 20" fill="none" xmlns="http://www.w3.org/2000/svg">
<path fill-rule="evenodd" clip-rule="evenodd" d="M4.16602 3.33341C3.945 3.33341 3.73304 3.42121 3.57676 3.57749C3.42048 3.73377 3.33268 3.94573 3.33268 4.16675V15.8334C3.33268 16.0544 3.42048 16.2664 3.57676 16.4227C3.73304 16.579 3.945 16.6667 4.16602 16.6667H7.49935C7.95959 16.6667 8.33268 17.0398 8.33268 17.5001C8.33268 17.9603 7.95959 18.3334 7.49935 18.3334H4.16602C3.50297 18.3334 2.86709 18.07 2.39825 17.6012C1.92941 17.1323 1.66602 16.4965 1.66602 15.8334V4.16675C1.66602 3.50371 1.92941 2.86782 2.39825 2.39898C2.86709 1.93014 3.50297 1.66675 4.16602 1.66675H7.49935C7.95959 1.66675 8.33268 2.03984 8.33268 2.50008C8.33268 2.96032 7.95959 3.33341 7.49935 3.33341H4.16602Z" fill="#222222"/>
<path fill-rule="evenodd" clip-rule="evenodd" d="M12.7441 5.24408C13.0695 4.91864 13.5972 4.91864 13.9226 5.24408L18.0893 9.41074C18.4147 9.73618 18.4147 10.2638 18.0893 10.5893L13.9226 14.7559C13.5972 15.0814 13.0695 15.0814 12.7441 14.7559C12.4186 14.4305 12.4186 13.9028 12.7441 13.5774L16.3215 10L12.7441 6.42259C12.4186 6.09715 12.4186 5.56951 12.7441 5.24408Z" fill="#222222"/>
<path fill-rule="evenodd" clip-rule="evenodd" d="M6.66602 10.0001C6.66602 9.53984 7.03911 9.16675 7.49935 9.16675H17.4994C17.9596 9.16675 18.3327 9.53984 18.3327 10.0001C18.3327 10.4603 17.9596 10.8334 17.4994 10.8334H7.49935C7.03911 10.8334 6.66602 10.4603 6.66602 10.0001Z" fill="#222222"/>
</svg>
