<svg width="25" height="24" viewBox="0 0 25 24" fill="none" xmlns="http://www.w3.org/2000/svg">
<path fill-rule="evenodd" clip-rule="evenodd" d="M2.73438 12C2.73438 11.4477 3.18209 11 3.73438 11H21.7344C22.2867 11 22.7344 11.4477 22.7344 12C22.7344 12.5523 22.2867 13 21.7344 13H3.73438C3.18209 13 2.73438 12.5523 2.73438 12Z" fill="#222222"/>
<path fill-rule="evenodd" clip-rule="evenodd" d="M2.73438 6C2.73438 5.44772 3.18209 5 3.73438 5H21.7344C22.2867 5 22.7344 5.44772 22.7344 6C22.7344 6.55228 22.2867 7 21.7344 7H3.73438C3.18209 7 2.73438 6.55228 2.73438 6Z" fill="#222222"/>
<path fill-rule="evenodd" clip-rule="evenodd" d="M2.73438 18C2.73438 17.4477 3.18209 17 3.73438 17H21.7344C22.2867 17 22.7344 17.4477 22.7344 18C22.7344 18.5523 22.2867 19 21.7344 19H3.73438C3.18209 19 2.73438 18.5523 2.73438 18Z" fill="#222222"/>
</svg>
